# xmcd CD database file
#
# Track frame offsets:
#	150
#	12017
#	20237
#	34395
#	46216
#	58030
#	70252
#	82814
#	93863
#
# Disc length: 1411 seconds
#
# Revision: 0
# Processed by: cddbd v1.5.2PL0 Copyright (c) Steve Scherf et al.
# Submitted via: CDex 1.77
#
DISCID=6a058109
DTITLE=Nathan Stewart - The Sweet Love Of Lacey
DYEAR=2014
DGENRE=Country
TTITLE0=Angeline The Baker
TTITLE1=Old Joe Clark
TTITLE2=The Sweet Love Of Lacey
TTITLE3=John Henry
TTITLE4=Shady Grove
TTITLE5=Lost Indian
TTITLE6=Golden Slippers
TTITLE7=I'm On My Way Back to The Old Home
TTITLE8=Nathan Stewart - Road To Columbus
EXTD=YEAR: 2014
EXTT0=
EXTT1=
EXTT2=
EXTT3=
EXTT4=
EXTT5=
EXTT6=
EXTT7=
EXTT8=
PLAYORDER=
